# xmcd
#
# Track frame offsets: 
#        150
#        20638
#        45251
#        66577
#        85848
#        108439
#        126566
#        147352
#        170946
#        194343
#        214263
#
# Disc length: 3153 seconds
#
# Revision: 0
# Processed by: cddbd v1.5.2PL0 Copyright (c) Steve Scherf et al.
# Submitted via: ExactAudioCopy v1.3
#
DISCID=ac0c4f0b
DTITLE=Lucky Losers - Blind Spot
DYEAR=2018
DGENRE=Blues
TTITLE0=It's Never To Early
TTITLE1=Take The Long Road
TTITLE2=Alligator Bapitism
TTITLE3=The River
TTITLE4=Supernatural Blues
TTITLE5=Make A Right Turn
TTITLE6=Bulldogs and Angels
TTITLE7=Last Ride
TTITLE8=Don't Take Too Much
TTITLE9=Love Is Blind
TTITLE10=You Left It Behind
EXTD=
EXTT0=
EXTT1=
EXTT2=
EXTT3=
EXTT4=
EXTT5=
EXTT6=
EXTT7=
EXTT8=
EXTT9=
EXTT10=
PLAYORDER=
